HIERARCHY
ROOT ui
{
	 OFFSET 0 0 0
	 CHANNELS 3 XPosition YPosition Z Position
	 EndSite
	 {
	 OFFSET 0 -1 0
	 }
}
ROOT li
{
	 OFFSET 0 0 0
	 CHANNELS 3 XPosition YPosition Z Position
	 EndSite
	 {
	 OFFSET 0 -1 0
	 }
}
ROOT ul
{
	 OFFSET 0 0 0
	 CHANNELS 3 XPosition YPosition Z Position
	 EndSite
	 {
	 OFFSET 0 -1 0
	 }
}
ROOT ll
{
	 OFFSET 0 0 0
	 CHANNELS 3 XPosition YPosition Z Position
	 EndSite
	 {
	 OFFSET 0 -1 0
	 }
}
ROOT tt
{
	 OFFSET 0 0 0
	 CHANNELS 3 XPosition YPosition Z Position
	 EndSite
	 {
	 OFFSET 0 -1 0
	 }
}
ROOT tb
{
	 OFFSET 0 0 0
	 CHANNELS 3 XPosition YPosition Z Position
	 EndSite
	 {
	 OFFSET 0 -1 0
	 }
}
ROOT td
{
	 OFFSET 0 0 0
	 CHANNELS 3 XPosition YPosition Z Position
	 EndSite
	 {
	 OFFSET 0 -1 0
	 }
}
ROOT v
{
	 OFFSET 0 0 0
	 CHANNELS 3 XPosition YPosition Z Position
	 EndSite
	 {
	 OFFSET 0 -1 0
	 }
}
ROOT bn
{
	 OFFSET 0 0 0
	 CHANNELS 3 XPosition YPosition Z Position
	 EndSite
	 {
	 OFFSET 0 -1 0
	 }
}
MOTION
Frames: 27
Frame Time: 0.002
-0.005639231204986573	-0.004460840225219726	0		0.5057975769042968	-2.577360595703125	0		-0.7796412353515625	0.30667559814453127	0		-0.5995013427734375	-2.43991162109375	0		1.6671898193359376	-1.2534176025390624	0		3.368693603515625	-0.7666008911132812	0		4.682958984375	-0.6017535400390625	0		5.93128125	0.41002740478515626	0		-0.20844598388671876	5.9066923828125	0		
-0.005079089164733886	-0.005317643165588379	0		0.46566717529296875	-2.575630859375	0		-0.7691287841796876	0.3046050720214844	0		-0.615622802734375	-2.43661328125	0		1.6788720703125	-1.2552347412109375	0		3.360609619140625	-0.7459754638671875	0		4.68666162109375	-0.5961392211914063	0		5.93979541015625	0.40971334838867185	0		-0.1953750457763672	5.91764404296875	0		
-0.007312405109405518	0.009863031387329102	0		0.5145872802734375	-2.570054443359375	0		-0.7645497436523437	0.3076156005859375	0		-0.5836647338867188	-2.426933837890625	0		1.6826041259765625	-1.2529510498046874	0		3.363940673828125	-0.7705108032226563	0		4.6814013671875	-0.5874207153320312	0		5.940517578125	0.42548739624023435	0		-0.19543092346191407	5.91776708984375	0		
-0.013839627265930176	0.00310528302192688	0		0.4853778076171875	-2.5724658203125	0		-0.7740181274414063	0.3078177490234375	0		-0.5808405151367187	-2.4258662109375	0		1.683282470703125	-1.2536248779296875	0		3.388643798828125	-0.765318359375	0		4.68992138671875	-0.5948880615234375	0		5.94493408203125	0.4182003479003906	0		-0.2116023406982422	5.90810498046875	0		
6.127619743347168E-4	-0.0039015519618988037	0		0.5390926513671875	-2.5789169921875	0		-0.7735186157226562	0.306912841796875	0		-0.5800726318359375	-2.426751953125	0		1.6839351806640626	-1.25428857421875	0		3.36211181640625	-0.7764722290039062	0		4.690509765625	-0.5952564086914063	0		5.93742333984375	0.4180563354492188	0		-0.07937248229980469	5.92858447265625	0		
-0.012808122634887696	0.0014704979658126832	0		0.48690106201171873	-2.57400537109375	0		-0.7671080322265625	0.300962890625	0		-0.57934521484375	-2.427609130859375	0		1.6845538330078125	-1.2549356689453126	0		3.374622314453125	-0.7821139526367188	0		4.69106689453125	-0.5956246948242188	0		5.9337744140625	0.4088546142578125	0		-0.24674574279785155	5.9028720703125	0		
-0.005264572143554688	0.006611701011657715	0		0.5524501953125	-2.586542724609375	0		-0.762614990234375	0.3040766296386719	0		-0.6435119018554688	-2.41561962890625	0		1.694080810546875	-1.2596722412109376	0		3.384971435546875	-0.797716552734375	0		4.68956298828125	-0.5979652099609375	0		5.9293212890625	0.4176577453613281	0		-0.24482266235351563	5.89905615234375	0		
0.009104415893554688	7.089040279388428E-4	0		0.49533843994140625	-2.56651171875	0		-0.7571572265625	0.30722503662109374	0		-0.5699320678710937	-2.4203037109375	0		1.6996988525390626	-1.253330810546875	0		3.375864013671875	-0.76605810546875	0		4.6951416015625	-0.5903881225585937	0		5.942806640625	0.42423342895507815	0		-0.19663504028320314	5.91571142578125	0		
-0.004440556049346924	0.005199442863464356	0		0.5417361450195313	-2.581724365234375	0		-0.7618353271484375	0.30255130004882813	0		-0.619291015625	-2.41441064453125	0		1.6950938720703126	-1.260830810546875	0		3.367003173828125	-0.79138916015625	0		4.692501953125	-0.5967013549804687	0		5.93398486328125	0.40908279418945315	0		-0.2269166564941406	5.89438671875	0		
-0.004091731071472168	0.004569786071777344	0		0.4893112487792969	-2.5766708984375	0		-0.7655537719726563	0.297923828125	0		-0.5878796997070312	-2.4224580078125	0		1.71247119140625	-1.265562744140625	0		3.38338818359375	-0.7930049438476563	0		4.70388720703125	-0.5971734619140625	0		5.93450439453125	0.4248216247558594	0		-0.21378834533691407	5.9055830078125	0		
-0.010861620903015137	-0.0019164299964904786	0		0.542688232421875	-2.58286279296875	0		-0.7652667846679687	0.2973106994628906	0		-0.6583675537109375	-2.416195556640625	0		1.695892578125	-1.2618350830078124	0		3.3896357421875	-0.801467041015625	0		4.69322314453125	-0.5973574829101562	0		5.93069970703125	0.4176190185546875	0		-0.2138036651611328	5.90499951171875	0		
-0.0035337469577789308	0.003487253904342651	0		0.5010529479980469	-2.58383740234375	0		-0.7609766845703125	0.3007164306640625	0		-0.5870796508789062	-2.4235986328125	0		1.696205810546875	-1.2622677001953124	0		3.392122314453125	-0.785847412109375	0		4.70246875	-0.6007618408203125	0		5.9438134765625	0.4072232971191406	0		-0.23275677490234375	5.9097099609375	0		
7.219780087471009E-4	0.006993159770965576	0		0.5303574829101563	-2.584614990234375	0		-0.833775146484375	0.30112664794921873	0		-0.6427507934570312	-2.421387939453125	0		1.7015462646484374	-1.255708984375	0		3.39606884765625	-0.8102094116210937	0		4.71086865234375	-0.5871248779296875	0		5.94321142578125	0.42401666259765625	0		-0.21383746337890625	5.90402587890625	0		
8.82764995098114E-4	0.006615778923034668	0		0.5176492309570313	-2.58081884765625	0		-0.7646770629882812	0.2958893127441406	0		-0.5865416870117187	-2.424462158203125	0		1.715649169921875	-1.264201416015625	0		3.414435546875	-0.7956983642578125	0		4.70797607421875	-0.5933170776367187	0		5.93927490234375	0.4168754272460938	0		-0.08059428405761719	5.92503271484375	0		
-0.010121438980102539	-0.003558917045593262	0		0.5178304443359375	-2.58111376953125	0		-0.8475506591796875	0.29756277465820313	0		-0.6572869262695312	-2.417929443359375	0		1.7157969970703124	-1.2644659423828124	0		3.39048876953125	-0.8026299438476563	0		4.7081064453125	-0.5935057983398437	0		5.9393798828125	0.41671792602539065	0		-0.22900393676757813	5.894509765625	0		
-0.006012915134429931	-8.456910252571106E-4	0		0.5248204956054687	-2.59242529296875	0		-0.7744891357421875	0.2964290466308594	0		-0.5773655395507813	-2.435142578125	0		1.715894287109375	-1.264670654296875	0		3.3806259765625	-0.798681884765625	0		4.7061669921875	-0.5956279296875	0		5.92244580078125	0.41680035400390625	0		-0.21393907165527343	5.9030859375	0		
-0.002944159984588623	0.0019501010179519653	0		0.5098423156738281	-2.596405029296875	0		-0.8374678344726563	0.29600823974609375	0		-0.6821710205078125	-2.42405615234375	0		1.71487255859375	-1.27080224609375	0		3.409319091796875	-0.8281494750976562	0		4.71026806640625	-0.5907788696289062	0		5.94435107421875	0.40645083618164063	0		-0.23095079040527344	5.90611962890625	0		
0.004137292861938476	0.008768381118774414	0		0.5579552001953125	-2.5890751953125	0		-0.7644778442382812	0.295026611328125	0		-0.6071697387695313	-2.426060546875	0		1.73690380859375	-1.2691490478515626	0		3.40276904296875	-0.7911356811523438	0		4.707451171875	-0.5758004150390625	0		5.94453759765625	0.42240380859375	0		-0.23100382995605467	5.9060205078125	0		
-0.002978214979171753	0.0018264549970626832	0		0.5269120483398437	-2.59072705078125	0		-0.7744981689453125	0.2961170349121094	0		-0.6482368774414062	-2.4295966796875	0		1.7359132080078126	-1.26615673828125	0		3.393440673828125	-0.8160385131835938	0		4.71127734375	-0.5878550415039062	0		5.93943212890625	0.41646188354492186	0		-0.24815455627441407	5.89819775390625	0		
-0.003034379005432129	0.0018690810203552245	0		0.5517953491210937	-2.595984130859375	0		-0.7787103881835937	0.2832082824707031	0		-0.613318359375	-2.431974609375	0		1.741773193359375	-1.273184814453125	0		3.3874814453125	-0.8079226684570312	0		4.70940185546875	-0.572787109375	0		5.93526806640625	0.40755624389648437	0		-0.09403260040283203	5.912388671875	0		
-0.0031090850830078126	0.001978659987449646	0		0.5076825561523437	-2.5983466796875	0		-0.8517792358398437	0.2841965637207031	0		-0.6305889892578125	-2.447658447265625	0		1.748611328125	-1.280162353515625	0		3.423282470703125	-0.818251708984375	0		4.71521728515625	-0.5817584228515625	0		5.93109814453125	0.3997025451660156	0		-0.21323106384277343	5.90192919921875	0		
0.019765979766845704	-0.001123811960220337	0		0.5714125366210937	-2.612943115234375	0		-0.7788706665039062	0.28349612426757814	0		-0.6636229858398438	-2.4420859375	0		1.740519775390625	-1.279899169921875	0		3.404493896484375	-0.7928644409179687	0		4.70720068359375	-0.5755068359375	0		5.9351083984375	0.40780511474609377	0		-0.08004102325439454	5.92250390625	0		
7.571039795875549E-4	0.0063388547897338865	0		0.5364628295898437	-2.59929150390625	0		-0.8428627319335937	0.2925041809082031	0		-0.6267333374023437	-2.44229248046875	0		1.76244091796875	-1.2779384765625	0		3.42309326171875	-0.817874755859375	0		4.7122109375	-0.5663583374023438	0		5.944015625	0.4078995361328125	0		-0.19723919677734375	5.91214697265625	0		
0.019573272705078124	-5.969679951667785E-4	0		0.559259521484375	-2.606279296875	0		-0.7790597534179687	0.2840331726074219	0		-0.626849609375	-2.44199560546875	0		1.7423587646484375	-1.275418701171875	0		3.4292412109375	-0.796681396484375	0		4.718	-0.5751723022460937	0		5.94392041015625	0.4081479797363281	0		-0.21242514038085938	5.9016220703125	0		
-0.003490159034729004	0.003025248050689697	0		0.5571083984375	-2.6079150390625	0		-0.7840975341796875	0.28944644165039063	0		-0.6289990844726563	-2.44361962890625	0		1.759183349609375	-1.280294677734375	0		3.42201220703125	-0.8062847900390625	0		4.712001953125	-0.565802001953125	0		5.93893212890625	0.41749407958984375	0		-0.21345556640625	5.9029814453125	0		
-0.010667009353637695	-0.0024954710006713865	0		0.5559451293945312	-2.609515625	0		-0.8563021240234375	0.2817197570800781	0		-0.6661334838867188	-2.442770751953125	0		1.7459901123046875	-1.2857662353515624	0		3.401006591796875	-0.7966827392578125	0		4.7080341796875	-0.5534219970703125	0		5.93472412109375	0.4088595275878906	0		-0.21249537658691406	5.90236669921875	0		
-0.0037051210403442384	0.0038580780029296873	0		0.5417683715820313	-2.61091748046875	0		-0.852359375	0.2861238098144531	0		-0.6292869873046875	-2.44276806640625	0		1.7678812255859375	-1.283622802734375	0		3.437626953125	-0.8177463989257813	0		4.7138056640625	-0.5621341552734375	0		5.93951220703125	0.40013894653320314	0		-0.22948133850097657	5.905013671875	0		
